<svg width="25" height="25" viewBox="0 0 25 25" fill="none" xmlns="http://www.w3.org/2000/svg">
<path d="M15.9261 12.1274H12.6467M12.6467 12.1274H9.36719M12.6467 12.1274V8.79883M12.6467 12.1274V15.456" stroke="#693817" stroke-width="2" stroke-linecap="round"/>
<path d="M23.577 12.13C23.577 17.3603 23.577 19.9756 21.9761 21.6004C20.3753 23.2253 17.7986 23.2253 12.6454 23.2253C7.49224 23.2253 4.91565 23.2253 3.31476 21.6004C1.71387 19.9756 1.71387 17.3603 1.71387 12.13C1.71387 6.89961 1.71387 4.28441 3.31476 2.65955C4.91565 1.03467 7.49224 1.03467 12.6454 1.03467C17.7986 1.03467 20.3753 1.03467 21.9761 2.65955C23.0406 3.73994 23.3973 5.25816 23.5168 7.69187" stroke="#693817" stroke-width="2" stroke-linecap="round"/>
</svg>
