<svg width="25" height="24" viewBox="0 0 25 24" fill="none" xmlns="http://www.w3.org/2000/svg">
<path d="M1.71387 11.355C1.71387 7.2585 1.71387 5.21027 2.96769 3.93765C4.22153 2.66504 6.23953 2.66504 10.2755 2.66504H14.5564C18.5924 2.66504 20.6104 2.66504 21.8642 3.93765C23.1181 5.21027 23.1181 7.2585 23.1181 11.355V13.5275C23.1181 17.6239 23.1181 19.6722 21.8642 20.9448C20.6104 22.2174 18.5924 22.2174 14.5564 22.2174H10.2755C6.23953 22.2174 4.22153 22.2174 2.96769 20.9448C1.71387 19.6722 1.71387 17.6239 1.71387 13.5275V11.355Z" stroke="#693817" stroke-width="2"/>
<path d="M7.06543 2.66403V1.03467" stroke="#693817" stroke-width="2" stroke-linecap="round"/>
<path d="M17.7676 2.66403V1.03467" stroke="#693817" stroke-width="2" stroke-linecap="round"/>
<path d="M2.25195 8.09399H22.5859" stroke="#693817" stroke-width="2" stroke-linecap="round"/>
<path d="M18.8387 16.7845C18.8387 17.3844 18.3595 17.8707 17.7685 17.8707C17.1774 17.8707 16.6982 17.3844 16.6982 16.7845C16.6982 16.1846 17.1774 15.6982 17.7685 15.6982C18.3595 15.6982 18.8387 16.1846 18.8387 16.7845Z" fill="#693817"/>
<path d="M18.8387 12.4407C18.8387 13.0407 18.3595 13.527 17.7685 13.527C17.1774 13.527 16.6982 13.0407 16.6982 12.4407C16.6982 11.8408 17.1774 11.3545 17.7685 11.3545C18.3595 11.3545 18.8387 11.8408 18.8387 12.4407Z" fill="#693817"/>
<path d="M13.4871 16.7845C13.4871 17.3844 13.008 17.8707 12.4169 17.8707C11.8258 17.8707 11.3467 17.3844 11.3467 16.7845C11.3467 16.1846 11.8258 15.6982 12.4169 15.6982C13.008 15.6982 13.4871 16.1846 13.4871 16.7845Z" fill="#693817"/>
<path d="M13.4871 12.4407C13.4871 13.0407 13.008 13.527 12.4169 13.527C11.8258 13.527 11.3467 13.0407 11.3467 12.4407C11.3467 11.8408 11.8258 11.3545 12.4169 11.3545C13.008 11.3545 13.4871 11.8408 13.4871 12.4407Z" fill="#693817"/>
<path d="M8.13651 16.7845C8.13651 17.3844 7.65736 17.8707 7.0663 17.8707C6.47525 17.8707 5.99609 17.3844 5.99609 16.7845C5.99609 16.1846 6.47525 15.6982 7.0663 15.6982C7.65736 15.6982 8.13651 16.1846 8.13651 16.7845Z" fill="#693817"/>
<path d="M8.13651 12.4407C8.13651 13.0407 7.65736 13.527 7.0663 13.527C6.47525 13.527 5.99609 13.0407 5.99609 12.4407C5.99609 11.8408 6.47525 11.3545 7.0663 11.3545C7.65736 11.3545 8.13651 11.8408 8.13651 12.4407Z" fill="#693817"/>
</svg>
