<svg width="24" height="24" viewBox="0 0 24 24" fill="none" xmlns="http://www.w3.org/2000/svg">
<path d="M9.01758 16.2261C9.90492 16.8936 10.9841 17.2852 12.148 17.2852C13.3119 17.2852 14.391 16.8936 15.2784 16.2261" stroke="#693817" stroke-width="2" stroke-linecap="round"/>
<path d="M22.5832 12.2056V13.8166C22.5832 17.948 22.5832 20.0137 21.3607 21.2972C20.1383 22.5807 18.1706 22.5807 14.2355 22.5807H10.0616C6.12644 22.5807 4.15887 22.5807 2.93636 21.2972C1.71387 20.0137 1.71387 17.948 1.71387 13.8166V12.2056C1.71387 9.78198 1.71387 8.57014 2.25564 7.56555C2.7974 6.56096 3.78719 5.93746 5.76673 4.6905L7.85367 3.37588C9.94619 2.05775 10.9925 1.39868 12.1485 1.39868C13.3046 1.39868 14.3509 2.05775 16.4435 3.37588L18.5304 4.69049C20.51 5.93746 21.4997 6.56096 22.0415 7.56555" stroke="#693817" stroke-width="2" stroke-linecap="round"/>
</svg>
