<svg width="43" height="53" viewBox="0 0 43 53" fill="none" xmlns="http://www.w3.org/2000/svg">
<path d="M14.3333 5.3V0H28.6667V5.3M14.3333 5.3H9.55556V10.6H0V53H43V10.6H33.4444V5.3H28.6667M14.3333 5.3V10.6H28.6667V5.3M14.3333 5.3H28.6667M28.6667 15.9H14.3333V21.2H9.55556V15.9H4.77778V47.7H38.2222V15.9H33.4444V21.2H28.6667V15.9Z" fill="black"/>
<path d="M14.3333 5.3V0H28.6667V5.3M14.3333 5.3H9.55556V10.6H0V53H43V10.6H33.4444V5.3H28.6667M14.3333 5.3V10.6H28.6667V5.3M14.3333 5.3H28.6667M28.6667 15.9H14.3333V21.2H9.55556V15.9H4.77778V47.7H38.2222V15.9H33.4444V21.2H28.6667V15.9Z" stroke="black"/>
</svg>
