<svg width="30" height="40" viewBox="0 0 30 40" fill="none" xmlns="http://www.w3.org/2000/svg">
<path d="M25.5803 9.09679C24.2595 8.5283 22.808 8.28467 21.4159 8.28467C19.0957 8.28467 16.5971 8.93436 14.8718 10.721C13.1466 8.93436 10.6479 8.28467 8.32775 8.28467C6.00758 8.28467 3.50894 8.93436 1.78369 10.721V34.5162C1.78369 34.9222 2.08115 35.3283 2.37861 35.3283C2.49759 35.3283 2.55708 35.2471 2.67606 35.2471C4.28233 34.1913 6.6025 33.4604 8.32775 33.4604C10.6479 33.4604 13.1466 34.1101 14.8718 35.8968C16.4781 34.5162 19.3932 33.4604 21.4159 33.4604C23.3791 33.4604 25.4018 33.9477 27.0675 35.1659C27.1865 35.2471 27.246 35.2471 27.365 35.2471C27.6625 35.2471 27.9599 34.841 27.9599 34.435V10.721C27.246 9.99012 26.4726 9.50285 25.5803 9.09679ZM25.5803 31.0241C24.2714 30.4556 22.8437 30.2119 21.4159 30.2119C19.3932 30.2119 16.4781 31.2677 14.8718 32.6483V13.9695C16.4781 12.5889 19.3932 11.5332 21.4159 11.5332C22.8437 11.5332 24.2714 11.7768 25.5803 12.3453V31.0241Z" fill="black"/>
<path d="M21.4158 18.0301C22.4628 18.0301 23.4742 18.1763 24.3903 18.4524V15.9836C23.4504 15.7399 22.439 15.5938 21.4158 15.5938C19.393 15.5938 17.5607 16.0648 16.0615 16.9419V19.6381C17.406 18.5986 19.2741 18.0301 21.4158 18.0301ZM16.0615 21.2624V23.9586C17.406 22.9191 19.2741 22.3506 21.4158 22.3506C22.4628 22.3506 23.4742 22.4968 24.3903 22.7729V20.3041C23.4504 20.0604 22.439 19.9142 21.4158 19.9142C19.393 19.9142 17.5607 20.4015 16.0615 21.2624ZM21.4158 24.251C19.393 24.251 17.5607 24.722 16.0615 25.5991V28.2953C17.406 27.2558 19.2741 26.6873 21.4158 26.6873C22.4628 26.6873 23.4742 26.8335 24.3903 27.1096V24.6408C23.4504 24.3809 22.439 24.251 21.4158 24.251Z" fill="black"/>
</svg>
