<svg width="70" height="65" viewBox="0 0 70 65" fill="none" xmlns="http://www.w3.org/2000/svg">
<path d="M68.0239 25.0557L57.8422 7.32761C55.2452 2.80695 50.435 0 45.2845 0H24.7176C19.5672 0 14.7541 2.8099 12.1571 7.32761L1.97831 25.0557C-0.659438 29.6473 -0.659438 35.3527 1.97831 39.9443L12.1571 57.6724C14.7541 62.1931 19.5643 65 24.7176 65H45.2845C50.435 65 55.2481 62.1901 57.8451 57.6724L68.0239 39.9443C70.6587 35.3527 70.6587 29.6473 68.0239 25.0557ZM53.0291 28.102L40.1574 40.94C37.8802 43.2092 34.9487 44.3409 32.0173 44.3409C29.1149 44.3409 26.2096 43.2299 23.9412 41.005L18.4184 35.4857C17.2726 34.3422 17.2581 32.4719 18.3836 31.3078C19.509 30.1407 21.347 30.1259 22.4958 31.2723L28.001 36.771C30.2636 38.987 33.8233 38.9752 36.0888 36.7178L48.9576 23.8827C50.1005 22.7363 51.9356 22.7569 53.0698 23.9211C54.1953 25.0852 54.1779 26.9585 53.0291 28.102Z" fill="#FF9B00"/>
</svg>
