<svg width="48" height="48" viewBox="0 0 48 48" fill="none" xmlns="http://www.w3.org/2000/svg">
<path d="M6.12132 46.8787C4.94975 48.0503 3.05025 48.0503 1.87868 46.8787L1.12132 46.1213C-0.0502504 44.9498 -0.0502524 43.0503 1.12132 41.8787L16.8787 26.1213C18.0503 24.9497 18.0503 23.0503 16.8787 21.8787L1.12132 6.12132C-0.0502543 4.94975 -0.0502526 3.05025 1.12132 1.87868L1.87868 1.12132C3.05025 -0.0502545 4.94975 -0.0502525 6.12132 1.12132L21.8787 16.8787C23.0503 18.0503 24.9497 18.0503 26.1213 16.8787L41.8787 1.12132C43.0503 -0.0502543 44.9497 -0.0502523 46.1213 1.12132L46.8787 1.87868C48.0503 3.05025 48.0503 4.94975 46.8787 6.12132L31.1213 21.8787C29.9497 23.0503 29.9497 24.9497 31.1213 26.1213L46.8787 41.8787C48.0503 43.0503 48.0503 44.9497 46.8787 46.1213L46.1213 46.8787C44.9498 48.0503 43.0503 48.0503 41.8787 46.8787L26.1213 31.1213C24.9497 29.9497 23.0503 29.9497 21.8787 31.1213L6.12132 46.8787Z" fill="#693817"/>
</svg>
