<svg width="43" height="54" viewBox="0 0 43 54" fill="none" xmlns="http://www.w3.org/2000/svg">
<path d="M21.5 5.12493C17.0908 5.12493 12.8621 6.87649 9.74435 9.99428C6.62656 13.1121 4.875 17.3407 4.875 21.7499C4.875 28.5472 9.10725 35.1046 13.7527 40.1847C16.1281 42.7726 18.7199 45.153 21.5 47.3002C21.9148 46.9819 22.4017 46.594 22.9606 46.1364C25.1927 44.3036 27.2934 42.3163 29.2472 40.1894C33.8927 35.1046 38.125 28.5496 38.125 21.7499C38.125 17.3407 36.3734 13.1121 33.2556 9.99428C30.1379 6.87649 25.9092 5.12493 21.5 5.12493ZM21.5 53.1332L20.1534 52.2069L20.1463 52.2022L20.132 52.1903L20.0845 52.1571L19.9064 52.0312L19.2651 51.5633C16.0158 49.1213 12.9972 46.3865 10.2473 43.3933C5.39275 38.0781 0.125 30.3854 0.125 21.7476C0.125 16.0786 2.377 10.6417 6.38559 6.63315C10.3942 2.62456 15.831 0.372559 21.5 0.372559C27.169 0.372559 32.6058 2.62456 36.6144 6.63315C40.623 10.6417 42.875 16.0786 42.875 21.7476C42.875 30.3854 37.6073 38.0804 32.7528 43.3886C30.0035 46.3817 26.9858 49.1164 23.7373 51.5586C23.4666 51.7607 23.1935 51.9594 22.9179 52.1547L22.868 52.1879L22.8537 52.1998L22.849 52.2022L21.5 53.1332ZM21.5 16.9999C20.2402 16.9999 19.032 17.5004 18.1412 18.3912C17.2504 19.282 16.75 20.4902 16.75 21.7499C16.75 23.0097 17.2504 24.2179 18.1412 25.1087C19.032 25.9995 20.2402 26.4999 21.5 26.4999C22.7598 26.4999 23.968 25.9995 24.8588 25.1087C25.7496 24.2179 26.25 23.0097 26.25 21.7499C26.25 20.4902 25.7496 19.282 24.8588 18.3912C23.968 17.5004 22.7598 16.9999 21.5 16.9999ZM12 21.7499C12 19.2304 13.0009 16.814 14.7825 15.0324C16.5641 13.2508 18.9804 12.2499 21.5 12.2499C24.0196 12.2499 26.4359 13.2508 28.2175 15.0324C29.9991 16.814 31 19.2304 31 21.7499C31 24.2695 29.9991 26.6859 28.2175 28.4674C26.4359 30.249 24.0196 31.2499 21.5 31.2499C18.9804 31.2499 16.5641 30.249 14.7825 28.4674C13.0009 26.6859 12 24.2695 12 21.7499Z" fill="white"/>
</svg>
