<svg width="150" height="72" viewBox="0 0 150 72" fill="none" xmlns="http://www.w3.org/2000/svg">
<path d="M142.5 0H7.5C3.35786 0 0 3.85329 0 8.60656C0 13.3598 3.35786 17.2131 7.5 17.2131H142.5C146.642 17.2131 150 13.3598 150 8.60656C150 3.85329 146.642 0 142.5 0Z" fill="#FF9B00"/>
<path d="M142.5 27.2131H57.5C53.3579 27.2131 50 31.0664 50 35.8197C50 40.573 53.3579 44.4263 57.5 44.4263H142.5C146.642 44.4263 150 40.573 150 35.8197C150 31.0664 146.642 27.2131 142.5 27.2131Z" fill="#FF9B00"/>
<path d="M142.5 54.4263H107.5C103.358 54.4263 100 58.2796 100 63.0328C100 67.7861 103.358 71.6394 107.5 71.6394H142.5C146.642 71.6394 150 67.7861 150 63.0328C150 58.2796 146.642 54.4263 142.5 54.4263Z" fill="#FF9B00"/>
</svg>
