<svg width="45" height="44" viewBox="0 0 45 44" fill="none" xmlns="http://www.w3.org/2000/svg">
<path d="M17.3037 15.9999C18.5385 14.5359 20.4079 13.5999 22.5002 13.5999C24.5925 13.5999 26.4618 14.5359 27.6966 15.9999C28.5096 16.9655 29.0255 18.1375 29.1843 19.3794C29.343 20.6213 29.138 21.8819 28.5931 23.0139C28.0483 24.146 27.186 25.103 26.107 25.7733C25.028 26.4435 23.7766 26.7994 22.499 26.7994C21.2213 26.7994 19.97 26.4435 18.8909 25.7733C17.8119 25.103 16.9497 24.146 16.4048 23.0139C15.86 21.8819 15.6549 20.6213 15.8137 19.3794C15.9724 18.1375 16.4883 16.9655 17.3013 15.9999M31.6852 20.1999C31.6852 18.6831 31.303 17.2527 30.6268 15.9999H40.8752C41.8499 15.9999 42.7846 16.3792 43.4738 17.0543C44.163 17.7294 44.5502 18.6451 44.5502 19.5999V20.7999C44.5502 24.6087 41.5955 28.5087 36.4284 29.8815C35.8975 28.9471 35.1212 28.1688 34.18 27.627C33.2388 27.0852 32.1669 26.7996 31.0752 26.7999H28.7477C29.6763 25.9582 30.417 24.9373 30.923 23.8014C31.4289 22.6655 31.6893 21.4392 31.6877 20.1999M31.0752 29.1999C31.5582 29.1986 32.0366 29.2909 32.4831 29.4714C32.9295 29.6518 33.3352 29.917 33.6767 30.2515C34.0182 30.586 34.2889 30.9834 34.4731 31.4207C34.6573 31.8581 34.7515 32.3268 34.7502 32.7999V33.9999C34.7502 38.7303 30.1932 43.5999 22.5002 43.5999C14.8072 43.5999 10.2502 38.7303 10.2502 33.9999V32.7999C10.2489 32.3268 10.3431 31.8581 10.5273 31.4207C10.7115 30.9834 10.9822 30.586 11.3237 30.2515C11.6652 29.917 12.0709 29.6518 12.5173 29.4714C12.9638 29.2909 13.4422 29.1986 13.9252 29.1999H31.0752ZM0.450195 20.7999C0.450195 24.6087 3.4049 28.5087 8.57195 29.8815C9.10294 28.9471 9.87921 28.1688 10.8204 27.627C11.7616 27.0852 12.8335 26.7996 13.9252 26.7999H16.2527C15.3241 25.9582 14.5834 24.9373 14.0774 23.8014C13.5714 22.6655 13.3111 21.4392 13.3127 20.1999C13.3127 18.6831 13.6949 17.2527 14.3735 15.9999H4.1252C3.15052 15.9999 2.21577 16.3792 1.52658 17.0543C0.837382 17.7294 0.450195 18.6451 0.450195 19.5999V20.7999ZM19.4377 6.9999C19.4377 5.24947 18.7279 3.57074 17.4643 2.333C16.2008 1.09526 14.4871 0.399902 12.7002 0.399902C10.9133 0.399902 9.19959 1.09526 7.93606 2.333C6.67254 3.57074 5.9627 5.24947 5.9627 6.9999C5.9627 8.75033 6.67254 10.4291 7.93606 11.6668C9.19959 12.9045 10.9133 13.5999 12.7002 13.5999C14.4871 13.5999 16.2008 12.9045 17.4643 11.6668C18.7279 10.4291 19.4377 8.75033 19.4377 6.9999ZM39.0377 6.9999C39.0377 5.24947 38.3279 3.57074 37.0643 2.333C35.8008 1.09526 34.0871 0.399902 32.3002 0.399902C30.5133 0.399902 28.7996 1.09526 27.5361 2.333C26.2725 3.57074 25.5627 5.24947 25.5627 6.9999C25.5627 8.75033 26.2725 10.4291 27.5361 11.6668C28.7996 12.9045 30.5133 13.5999 32.3002 13.5999C34.0871 13.5999 35.8008 12.9045 37.0643 11.6668C38.3279 10.4291 39.0377 8.75033 39.0377 6.9999Z" fill="black"/>
</svg>
