<svg width="57" height="57" viewBox="0 0 57 57" fill="none" xmlns="http://www.w3.org/2000/svg">
<path d="M28.5 4.75049C41.6171 4.75049 52.25 15.3834 52.25 28.5005C52.25 41.6176 41.6171 52.2505 28.5 52.2505C15.3829 52.2505 4.75 41.6176 4.75 28.5005C4.75 15.3834 15.3829 4.75049 28.5 4.75049ZM28.5 9.50049C23.4609 9.50049 18.6282 11.5023 15.065 15.0655C11.5018 18.6287 9.5 23.4614 9.5 28.5005C9.5 33.5396 11.5018 38.3723 15.065 41.9355C18.6282 45.4987 23.4609 47.5005 28.5 47.5005C33.5391 47.5005 38.3718 45.4987 41.935 41.9355C45.4982 38.3723 47.5 33.5396 47.5 28.5005C47.5 23.4614 45.4982 18.6287 41.935 15.0655C38.3718 11.5023 33.5391 9.50049 28.5 9.50049ZM28.5 14.2505C29.0817 14.2506 29.6432 14.4641 30.0779 14.8507C30.5126 15.2372 30.7903 15.7699 30.8584 16.3476L30.875 16.6255V27.5172L37.3041 33.9464C37.7301 34.3738 37.9774 34.9473 37.9958 35.5504C38.0142 36.1535 37.8024 36.7411 37.4033 37.1936C37.0042 37.6462 36.4478 37.93 35.8471 37.9872C35.2464 38.0444 34.6465 37.8708 34.1691 37.5017L33.9459 37.3046L26.8209 30.1796C26.4518 29.8102 26.2147 29.3294 26.1464 28.8116L26.125 28.5005V16.6255C26.125 15.9956 26.3752 15.3915 26.8206 14.9461C27.266 14.5007 27.8701 14.2505 28.5 14.2505Z" fill="white"/>
</svg>
