<svg width="74" height="74" viewBox="0 0 74 74" fill="none" xmlns="http://www.w3.org/2000/svg">
<g filter="url(#filter0_d_54_66)">
<path d="M37 65.975L26 56.55H11.3333C9.31667 56.55 7.59089 55.9353 6.156 54.7058C4.72111 53.4764 4.00244 51.9967 4 50.2667V6.28333C4 4.55542 4.71867 3.07674 6.156 1.8473C7.59333 0.617861 9.31911 0.00209444 11.3333 0H62.6667C64.6833 0 66.4103 0.615767 67.8477 1.8473C69.285 3.07883 70.0024 4.55751 70 6.28333V50.2667C70 51.9946 69.2826 53.4743 67.8477 54.7058C66.4128 55.9374 64.6858 56.5521 62.6667 56.55H48L37 65.975ZM11.3333 46.6538C14.6333 43.8786 18.4687 41.6931 22.8393 40.0971C27.21 38.5011 31.9302 37.7021 37 37.7C42.0698 37.6979 46.7912 38.4969 51.1643 40.0971C55.5374 41.6972 59.3716 43.8828 62.6667 46.6538V6.28333H11.3333V46.6538ZM37 31.4167C40.5444 31.4167 43.5694 30.3433 46.075 28.1965C48.5806 26.0497 49.8333 23.4578 49.8333 20.4208C49.8333 17.3839 48.5806 14.792 46.075 12.6452C43.5694 10.4984 40.5444 9.425 37 9.425C33.4556 9.425 30.4306 10.4984 27.925 12.6452C25.4194 14.792 24.1667 17.3839 24.1667 20.4208C24.1667 23.4578 25.4194 26.0497 27.925 28.1965C30.4306 30.3433 33.4556 31.4167 37 31.4167ZM18.6667 50.2667H55.3333V49.4813C52.7667 47.6486 49.925 46.2747 46.8083 45.3594C43.6917 44.4441 40.4222 43.9854 37 43.9833C33.5778 43.9812 30.3083 44.4399 27.1917 45.3594C24.075 46.2788 21.2333 47.6528 18.6667 49.4813V50.2667ZM37 25.1333C35.4722 25.1333 34.1742 24.6757 33.106 23.7604C32.0378 22.8452 31.5024 21.732 31.5 20.4208C31.4976 19.1097 32.0329 17.9976 33.106 17.0844C34.1791 16.1712 35.4771 15.7125 37 15.7083C38.5229 15.7041 39.8221 16.1628 40.8977 17.0844C41.9732 18.0059 42.5073 19.1181 42.5 20.4208C42.4927 21.7236 41.9586 22.8368 40.8977 23.7604C39.8368 24.6841 38.5376 25.1417 37 25.1333Z" fill="black"/>
</g>
<defs>
<filter id="filter0_d_54_66" x="0" y="0" width="74" height="73.9751" filterUnits="userSpaceOnUse" color-interpolation-filters="sRGB">
<feFlood flood-opacity="0" result="BackgroundImageFix"/>
<feColorMatrix in="SourceAlpha" type="matrix" values="0 0 0 0 0 0 0 0 0 0 0 0 0 0 0 0 0 0 127 0" result="hardAlpha"/>
<feOffset dy="4"/>
<feGaussianBlur stdDeviation="2"/>
<feComposite in2="hardAlpha" operator="out"/>
<feColorMatrix type="matrix" values="0 0 0 0 0 0 0 0 0 0 0 0 0 0 0 0 0 0 0.25 0"/>
<feBlend mode="normal" in2="BackgroundImageFix" result="effect1_dropShadow_54_66"/>
<feBlend mode="normal" in="SourceGraphic" in2="effect1_dropShadow_54_66" result="shape"/>
</filter>
</defs>
</svg>
