<svg width="52" height="64" viewBox="0 0 52 64" fill="none" xmlns="http://www.w3.org/2000/svg">
<rect width="52" height="64" stroke="black"/>
<path d="M22.0595 7.68018C8.9222 7.68018 1.04004 20.6504 1.04004 27.1362C1.04004 33.6219 3.66708 38.4859 8.9222 38.4859C14.1773 38.4859 16.8054 40.1064 16.8054 44.9704C16.8054 51.4549 20.746 56.3189 26.0011 56.3189C43.08 56.3189 50.9611 44.9704 50.9611 33.6219C50.96 14.1659 37.8207 7.68018 22.0595 7.68018ZM18.7752 14.1659C19.2071 14.1663 19.6347 14.2714 20.0336 14.4753C20.4325 14.6792 20.7948 14.9779 21.0999 15.3542C21.4049 15.7306 21.6466 16.1773 21.8113 16.6688C21.976 17.1602 22.0603 17.6868 22.0595 18.2184C22.0595 20.4584 20.5889 22.2722 18.7752 22.2722C16.9614 22.2722 15.4908 20.4571 15.4908 18.2184C15.49 17.6868 15.5743 17.1602 15.739 16.6688C15.9037 16.1773 16.1454 15.7306 16.4505 15.3542C16.7555 14.9779 17.1178 14.6792 17.5167 14.4753C17.9156 14.2714 18.3432 14.1663 18.7752 14.1659ZM29.2833 14.1659C29.7152 14.1663 30.1429 14.2714 30.5418 14.4753C30.9407 14.6792 31.303 14.9779 31.608 15.3542C31.913 15.7306 32.1548 16.1773 32.3195 16.6688C32.4841 17.1602 32.5685 17.6868 32.5676 18.2184C32.5686 18.7501 32.4844 19.2768 32.3198 19.7685C32.1552 20.2601 31.9134 20.7069 31.6084 21.0834C31.3033 21.4599 30.941 21.7587 30.542 21.9627C30.1431 22.1667 29.7153 22.2718 29.2833 22.2722C28.8514 22.2717 28.4238 22.1664 28.0249 21.9623C27.6261 21.7583 27.2639 21.4594 26.9589 21.083C26.654 20.7065 26.4123 20.2597 26.2478 19.7682C26.0833 19.2766 25.9991 18.75 26 18.2184C25.9992 17.6869 26.0835 17.1604 26.2481 16.6691C26.4127 16.1777 26.6544 15.7311 26.9593 15.3547C27.2642 14.9783 27.6264 14.6796 28.0252 14.4757C28.424 14.2717 28.8515 14.1664 29.2833 14.1659ZM39.7936 20.6504C40.2257 20.6506 40.6535 20.7556 41.0526 20.9595C41.4517 21.1634 41.8141 21.4622 42.1193 21.8387C42.4245 22.2153 42.6663 22.6622 42.8309 23.1538C42.9956 23.6455 43.0799 24.1724 43.0789 24.7042C43.0797 25.2359 42.9954 25.7626 42.8306 26.2541C42.6659 26.7457 42.4241 27.1924 42.1189 27.5688C41.8138 27.9452 41.4513 28.2438 41.0523 28.4477C40.6533 28.6515 40.2256 28.7565 39.7936 28.7567C39.3617 28.7562 38.9342 28.6509 38.5354 28.4469C38.1367 28.243 37.7745 27.9442 37.4695 27.5679C37.1646 27.1915 36.9229 26.7449 36.7583 26.2535C36.5938 25.7622 36.5095 25.2357 36.5103 24.7042C36.5093 24.1726 36.5935 23.646 36.758 23.1544C36.9226 22.6629 37.1642 22.2161 37.4692 21.8396C37.7741 21.4631 38.1363 21.1643 38.5352 20.9603C38.934 20.7562 39.3616 20.6509 39.7936 20.6504ZM9.57948 23.8939C10.0112 23.8944 10.4387 23.9996 10.8374 24.2035C11.2361 24.4074 11.5982 24.706 11.9031 25.0823C12.208 25.4585 12.4497 25.905 12.6144 26.3962C12.779 26.8874 12.8634 27.4137 12.8628 27.9451C12.8628 30.1851 11.3922 31.9989 9.57948 31.9989C7.76676 31.9989 6.29516 30.1839 6.29516 27.9451C6.29448 27.4136 6.37891 26.8872 6.54363 26.3959C6.70835 25.9046 6.95013 25.458 7.25515 25.0818C7.56017 24.7056 7.92244 24.407 8.32126 24.2032C8.72009 23.9994 9.14764 23.8943 9.57948 23.8939ZM26 40.1064C28.1768 40.1064 29.9406 42.2824 29.9406 44.9717C29.9406 47.6571 28.1768 49.8344 26 49.8344C23.8233 49.8344 22.0595 47.6571 22.0595 44.9717C22.0585 44.3337 22.1597 43.7018 22.3572 43.112C22.5548 42.5222 22.8448 41.986 23.2108 41.5342C23.5767 41.0824 24.0114 40.7238 24.49 40.4788C24.9686 40.2338 25.4817 40.1073 26 40.1064Z" fill="black"/>
</svg>
